# xmcd
#
# Track frame offsets: 
#        150
#        1284
#        14092
#        26727
#        28948
#        40059
#        60570
#        72014
#        80501
#        83822
#        103794
#        108886
#        127125
#        147900
#        160674
#        178262
#        187719
#        201530
#        218519
#        262140
#        264775
#        288391
#        303367
#
# Disc length: 4454 seconds
#
# Revision: 0
# Processed by: cddbd v1.5.2PL0 Copyright (c) Steve Scherf et al.
# Submitted via: ExactAudioCopy v0.95b3
#
DISCID=44116417
DTITLE=The Beatles  - Magical Mystery Year - Deluxe Edition 09 Purple 
DTITLE=Chick-Disc 3 - sessions  FLAC
DYEAR=1900
DGENRE=
TTITLE0=Free Now
TTITLE1=Magical Mystery Tour - RM4
TTITLE2=Magical Mystery Tour - RM7
TTITLE3=All You Need Is Love - take unknown
TTITLE4=All You Need Is Love - warmup
TTITLE5=All You Need Is Love - take 58
TTITLE6=Your Mother Should Know - take 8
TTITLE7=I Am The Walrus - take 7
TTITLE8=I Am The Walrus - take 8
TTITLE9=I Am The Walrus - take 9
TTITLE10=I Am The Walrus - rehearsal
TTITLE11=I Am The Walrus - takes 16+17
TTITLE12=I Am The Walrus - RM4
TTITLE13=The Fool On The Hill - take 1 demo
TTITLE14=Blue Jay Way - RM1
TTITLE15=Flying - RM4
TTITLE16=Your Mother Should Know - take 27
TTITLE17=The Fool On The Hill - take 4
TTITLE18=Flying - take 8+overdub takes 1-5
TTITLE19=King Lear
TTITLE20=Hello Goodbye - take 1
TTITLE21=Hello Goodbye - take 16
TTITLE22=Christmas Time (Is Here Again) - take 1
EXTD=
EXTT0=
EXTT1=
EXTT2=
EXTT3=
EXTT4=
EXTT5=
EXTT6=
EXTT7=
EXTT8=
EXTT9=
EXTT10=
EXTT11=
EXTT12=
EXTT13=
EXTT14=
EXTT15=
EXTT16=
EXTT17=
EXTT18=
EXTT19=
EXTT20=
EXTT21=
EXTT22=
PLAYORDER=
